<svg xmlns="http://www.w3.org/2000/svg" viewBox="0 0 830 504" width="830" height="504" font-family="system-ui, -apple-system, Segoe UI, Helvetica, Arial, sans-serif" role="img" aria-labelledby="title desc">
<title id="title">Every build on every scenario</title>
<desc id="desc">How far each of 12 build variants is behind the best build in each of 4 scenarios. The tables in the README carry every number.</desc>
<rect width="830" height="504" rx="8" fill="#fcfcfb" stroke="#e3e2dc"/>
<rect x="8" y="96" width="814" height="34" fill="#f1f0ec"/>
<rect x="8" y="164" width="814" height="34" fill="#f1f0ec"/>
<line x1="8" x2="822" y1="203.0" y2="203.0" stroke="#b9b8b0"/>
<rect x="8" y="242" width="814" height="34" fill="#f1f0ec"/>
<rect x="8" y="310" width="814" height="34" fill="#f1f0ec"/>
<line x1="8" x2="822" y1="349.0" y2="349.0" stroke="#b9b8b0"/>
<rect x="8" y="388" width="814" height="34" fill="#f1f0ec"/>
<rect x="8" y="456" width="814" height="34" fill="#f1f0ec"/>
<text x="310.0" y="28.0" font-size="13" fill="#0b0b0b" text-anchor="middle" font-weight="600">ST</text>
<text x="272.0" y="50.0" font-size="12" fill="#52514e" text-anchor="middle" style="font-variant-numeric:tabular-nums">-10%</text>
<line x1="272.0" x2="272.0" y1="58" y2="494" stroke="#e3e2dc"/>
<text x="317.0" y="50.0" font-size="12" fill="#52514e" text-anchor="middle" style="font-variant-numeric:tabular-nums">-5%</text>
<line x1="317.0" x2="317.0" y1="58" y2="494" stroke="#e3e2dc"/>
<text x="362.0" y="50.0" font-size="12" fill="#52514e" text-anchor="middle" style="font-variant-numeric:tabular-nums">0%</text>
<line x1="362.0" x2="362.0" y1="58" y2="494" stroke="#e3e2dc"/>
<line x1="382.0" x2="382.0" y1="10" y2="494" stroke="#e3e2dc"/>
<text x="454.0" y="28.0" font-size="13" fill="#0b0b0b" text-anchor="middle" font-weight="600">Cleave</text>
<text x="416.0" y="50.0" font-size="12" fill="#52514e" text-anchor="middle" style="font-variant-numeric:tabular-nums">-10%</text>
<line x1="416.0" x2="416.0" y1="58" y2="494" stroke="#e3e2dc"/>
<text x="461.0" y="50.0" font-size="12" fill="#52514e" text-anchor="middle" style="font-variant-numeric:tabular-nums">-5%</text>
<line x1="461.0" x2="461.0" y1="58" y2="494" stroke="#e3e2dc"/>
<text x="506.0" y="50.0" font-size="12" fill="#52514e" text-anchor="middle" style="font-variant-numeric:tabular-nums">0%</text>
<line x1="506.0" x2="506.0" y1="58" y2="494" stroke="#e3e2dc"/>
<line x1="526.0" x2="526.0" y1="10" y2="494" stroke="#e3e2dc"/>
<text x="598.0" y="28.0" font-size="13" fill="#0b0b0b" text-anchor="middle" font-weight="600">AoE</text>
<text x="560.0" y="50.0" font-size="12" fill="#52514e" text-anchor="middle" style="font-variant-numeric:tabular-nums">-10%</text>
<line x1="560.0" x2="560.0" y1="58" y2="494" stroke="#e3e2dc"/>
<text x="605.0" y="50.0" font-size="12" fill="#52514e" text-anchor="middle" style="font-variant-numeric:tabular-nums">-5%</text>
<line x1="605.0" x2="605.0" y1="58" y2="494" stroke="#e3e2dc"/>
<text x="650.0" y="50.0" font-size="12" fill="#52514e" text-anchor="middle" style="font-variant-numeric:tabular-nums">0%</text>
<line x1="650.0" x2="650.0" y1="58" y2="494" stroke="#e3e2dc"/>
<line x1="670.0" x2="670.0" y1="10" y2="494" stroke="#e3e2dc"/>
<text x="742.0" y="28.0" font-size="13" fill="#0b0b0b" text-anchor="middle" font-weight="600">Dungeon</text>
<text x="704.0" y="50.0" font-size="12" fill="#52514e" text-anchor="middle" style="font-variant-numeric:tabular-nums">-10%</text>
<line x1="704.0" x2="704.0" y1="58" y2="494" stroke="#e3e2dc"/>
<text x="749.0" y="50.0" font-size="12" fill="#52514e" text-anchor="middle" style="font-variant-numeric:tabular-nums">-5%</text>
<line x1="749.0" x2="749.0" y1="58" y2="494" stroke="#e3e2dc"/>
<text x="794.0" y="50.0" font-size="12" fill="#52514e" text-anchor="middle" style="font-variant-numeric:tabular-nums">0%</text>
<line x1="794.0" x2="794.0" y1="58" y2="494" stroke="#e3e2dc"/>
<g class="row"><title>Void-Scarred · ST build: ST best, Cleave -15.1%, AoE -23.9%, Dungeon -12.4%</title>
<rect class="own" x="239.0" y="62" width="142.0" height="34" fill="#2a78d6" fill-opacity="0.14"/>
<text x="16" y="83.5" font-size="12.5" fill="#0b0b0b"><tspan fill="#266dc3" font-weight="600">Void-Scarred</tspan> · ST build</text>
<circle cx="362.0" cy="79.0" r="6.5" fill="#2a78d6" stroke="#fcfcfb" stroke-width="2"/>
<path class="clamped" d="M392.0,79.0 l11,-7 v14 z" fill="#2a78d6"/>
<text x="411.0" y="83.5" font-size="12" fill="#52514e" text-anchor="start" style="font-variant-numeric:tabular-nums">-15.1%</text>
<path class="clamped" d="M536.0,79.0 l11,-7 v14 z" fill="#2a78d6"/>
<text x="555.0" y="83.5" font-size="12" fill="#52514e" text-anchor="start" style="font-variant-numeric:tabular-nums">-23.9%</text>
<path class="clamped" d="M680.0,79.0 l11,-7 v14 z" fill="#2a78d6"/>
<text x="699.0" y="83.5" font-size="12" fill="#52514e" text-anchor="start" style="font-variant-numeric:tabular-nums">-12.4%</text>
</g>
<g class="row"><title>Void-Scarred · Cleave build: ST -6.5%, Cleave best, AoE -1.5%, Dungeon -0.3%</title>
<rect class="own" x="383.0" y="96" width="142.0" height="34" fill="#2a78d6" fill-opacity="0.14"/>
<text x="16" y="117.5" font-size="12.5" fill="#0b0b0b"><tspan fill="#266dc3" font-weight="600">Void-Scarred</tspan> · Cleave build</text>
<circle cx="303.8" cy="113.0" r="6.5" fill="#2a78d6" stroke="#fcfcfb" stroke-width="2"/>
<text x="290.8" y="117.5" font-size="12" fill="#52514e" text-anchor="end" style="font-variant-numeric:tabular-nums">-6.5%</text>
<circle cx="506.0" cy="113.0" r="6.5" fill="#2a78d6" stroke="#fcfcfb" stroke-width="2"/>
<circle cx="636.3" cy="113.0" r="6.5" fill="#2a78d6" stroke="#fcfcfb" stroke-width="2"/>
<text x="623.3" y="117.5" font-size="12" fill="#52514e" text-anchor="end" style="font-variant-numeric:tabular-nums">-1.5%</text>
<circle cx="791.4" cy="113.0" r="6.5" fill="#2a78d6" stroke="#fcfcfb" stroke-width="2"/>
<text x="778.4" y="117.5" font-size="12" fill="#52514e" text-anchor="end" style="font-variant-numeric:tabular-nums">-0.3%</text>
</g>
<g class="row"><title>Void-Scarred · AoE build: ST -21.0%, Cleave -10.5%, AoE best, Dungeon -6.1%</title>
<rect class="own" x="527.0" y="130" width="142.0" height="34" fill="#2a78d6" fill-opacity="0.14"/>
<text x="16" y="151.5" font-size="12.5" fill="#0b0b0b"><tspan fill="#266dc3" font-weight="600">Void-Scarred</tspan> · AoE build</text>
<path class="clamped" d="M248.0,147.0 l11,-7 v14 z" fill="#2a78d6"/>
<text x="267.0" y="151.5" font-size="12" fill="#52514e" text-anchor="start" style="font-variant-numeric:tabular-nums">-21.0%</text>
<circle cx="411.9" cy="147.0" r="6.5" fill="#2a78d6" stroke="#fcfcfb" stroke-width="2"/>
<text x="424.9" y="151.5" font-size="12" fill="#52514e" text-anchor="start" style="font-variant-numeric:tabular-nums">-10.5%</text>
<circle cx="650.0" cy="147.0" r="6.5" fill="#2a78d6" stroke="#fcfcfb" stroke-width="2"/>
<circle cx="738.8" cy="147.0" r="6.5" fill="#2a78d6" stroke="#fcfcfb" stroke-width="2"/>
<text x="725.8" y="151.5" font-size="12" fill="#52514e" text-anchor="end" style="font-variant-numeric:tabular-nums">-6.1%</text>
</g>
<g class="row"><title>Void-Scarred · Dungeon build: ST -3.3%, Cleave -0.7%, AoE -2.0%, Dungeon best</title>
<rect class="own" x="671.0" y="164" width="142.0" height="34" fill="#2a78d6" fill-opacity="0.14"/>
<text x="16" y="185.5" font-size="12.5" fill="#0b0b0b"><tspan fill="#266dc3" font-weight="600">Void-Scarred</tspan> · Dungeon build</text>
<circle cx="332.5" cy="181.0" r="6.5" fill="#2a78d6" stroke="#fcfcfb" stroke-width="2"/>
<text x="319.5" y="185.5" font-size="12" fill="#52514e" text-anchor="end" style="font-variant-numeric:tabular-nums">-3.3%</text>
<circle cx="499.8" cy="181.0" r="6.5" fill="#2a78d6" stroke="#fcfcfb" stroke-width="2"/>
<text x="486.8" y="185.5" font-size="12" fill="#52514e" text-anchor="end" style="font-variant-numeric:tabular-nums">-0.7%</text>
<circle cx="632.3" cy="181.0" r="6.5" fill="#2a78d6" stroke="#fcfcfb" stroke-width="2"/>
<text x="619.3" y="185.5" font-size="12" fill="#52514e" text-anchor="end" style="font-variant-numeric:tabular-nums">-2.0%</text>
<circle cx="794.0" cy="181.0" r="6.5" fill="#2a78d6" stroke="#fcfcfb" stroke-width="2"/>
</g>
<g class="row"><title>Annihilator ranged · ST build: ST -9.5%, Cleave -20.0%, AoE -28.0%, Dungeon -13.4%</title>
<rect class="own" x="239.0" y="208" width="142.0" height="34" fill="#eb6834" fill-opacity="0.14"/>
<text x="16" y="229.5" font-size="12.5" fill="#0b0b0b"><tspan fill="#b34f28" font-weight="600">Annihilator ranged</tspan> · ST build</text>
<circle cx="276.3" cy="225.0" r="6.5" fill="#eb6834" stroke="#fcfcfb" stroke-width="2"/>
<text x="289.3" y="229.5" font-size="12" fill="#52514e" text-anchor="start" style="font-variant-numeric:tabular-nums">-9.5%</text>
<path class="clamped" d="M392.0,225.0 l11,-7 v14 z" fill="#eb6834"/>
<text x="411.0" y="229.5" font-size="12" fill="#52514e" text-anchor="start" style="font-variant-numeric:tabular-nums">-20.0%</text>
<path class="clamped" d="M536.0,225.0 l11,-7 v14 z" fill="#eb6834"/>
<text x="555.0" y="229.5" font-size="12" fill="#52514e" text-anchor="start" style="font-variant-numeric:tabular-nums">-28.0%</text>
<path class="clamped" d="M680.0,225.0 l11,-7 v14 z" fill="#eb6834"/>
<text x="699.0" y="229.5" font-size="12" fill="#52514e" text-anchor="start" style="font-variant-numeric:tabular-nums">-13.4%</text>
</g>
<g class="row"><title>Annihilator ranged · Cleave build, same build as AoE: ST -13.5%, Cleave -3.4%, AoE -4.2%, Dungeon -2.0%</title>
<rect class="own" x="383.0" y="242" width="142.0" height="34" fill="#eb6834" fill-opacity="0.14"/>
<text x="16" y="256.0" font-size="12.5" fill="#0b0b0b"><tspan fill="#b34f28" font-weight="600">Annihilator ranged</tspan> · Cleave build</text>
<text x="16.0" y="271.0" font-size="12" fill="#52514e" text-anchor="start">same build as AoE</text>
<path class="clamped" d="M248.0,259.0 l11,-7 v14 z" fill="#eb6834"/>
<text x="267.0" y="263.5" font-size="12" fill="#52514e" text-anchor="start" style="font-variant-numeric:tabular-nums">-13.5%</text>
<circle cx="475.4" cy="259.0" r="6.5" fill="#eb6834" stroke="#fcfcfb" stroke-width="2"/>
<text x="462.4" y="263.5" font-size="12" fill="#52514e" text-anchor="end" style="font-variant-numeric:tabular-nums">-3.4%</text>
<circle cx="611.8" cy="259.0" r="6.5" fill="#eb6834" stroke="#fcfcfb" stroke-width="2"/>
<text x="598.8" y="263.5" font-size="12" fill="#52514e" text-anchor="end" style="font-variant-numeric:tabular-nums">-4.2%</text>
<circle cx="775.8" cy="259.0" r="6.5" fill="#eb6834" stroke="#fcfcfb" stroke-width="2"/>
<text x="762.8" y="263.5" font-size="12" fill="#52514e" text-anchor="end" style="font-variant-numeric:tabular-nums">-2.0%</text>
</g>
<g class="row"><title>Annihilator ranged · AoE build, same build as Cleave: ST -13.5%, Cleave -3.4%, AoE -4.2%, Dungeon -2.0%</title>
<rect class="own" x="527.0" y="276" width="142.0" height="34" fill="#eb6834" fill-opacity="0.14"/>
<text x="16" y="290.0" font-size="12.5" fill="#0b0b0b"><tspan fill="#b34f28" font-weight="600">Annihilator ranged</tspan> · AoE build</text>
<text x="16.0" y="305.0" font-size="12" fill="#52514e" text-anchor="start">same build as Cleave</text>
<path class="clamped" d="M248.0,293.0 l11,-7 v14 z" fill="#eb6834"/>
<text x="267.0" y="297.5" font-size="12" fill="#52514e" text-anchor="start" style="font-variant-numeric:tabular-nums">-13.5%</text>
<circle cx="475.4" cy="293.0" r="6.5" fill="#eb6834" stroke="#fcfcfb" stroke-width="2"/>
<text x="462.4" y="297.5" font-size="12" fill="#52514e" text-anchor="end" style="font-variant-numeric:tabular-nums">-3.4%</text>
<circle cx="611.8" cy="293.0" r="6.5" fill="#eb6834" stroke="#fcfcfb" stroke-width="2"/>
<text x="598.8" y="297.5" font-size="12" fill="#52514e" text-anchor="end" style="font-variant-numeric:tabular-nums">-4.2%</text>
<circle cx="775.8" cy="293.0" r="6.5" fill="#eb6834" stroke="#fcfcfb" stroke-width="2"/>
<text x="762.8" y="297.5" font-size="12" fill="#52514e" text-anchor="end" style="font-variant-numeric:tabular-nums">-2.0%</text>
</g>
<g class="row"><title>Annihilator ranged · Dungeon build: ST -14.5%, Cleave -5.0%, AoE -6.0%, Dungeon -1.0%</title>
<rect class="own" x="671.0" y="310" width="142.0" height="34" fill="#eb6834" fill-opacity="0.14"/>
<text x="16" y="331.5" font-size="12.5" fill="#0b0b0b"><tspan fill="#b34f28" font-weight="600">Annihilator ranged</tspan> · Dungeon build</text>
<path class="clamped" d="M248.0,327.0 l11,-7 v14 z" fill="#eb6834"/>
<text x="267.0" y="331.5" font-size="12" fill="#52514e" text-anchor="start" style="font-variant-numeric:tabular-nums">-14.5%</text>
<circle cx="461.4" cy="327.0" r="6.5" fill="#eb6834" stroke="#fcfcfb" stroke-width="2"/>
<text x="448.4" y="331.5" font-size="12" fill="#52514e" text-anchor="end" style="font-variant-numeric:tabular-nums">-5.0%</text>
<circle cx="596.3" cy="327.0" r="6.5" fill="#eb6834" stroke="#fcfcfb" stroke-width="2"/>
<text x="583.3" y="331.5" font-size="12" fill="#52514e" text-anchor="end" style="font-variant-numeric:tabular-nums">-6.0%</text>
<circle cx="785.0" cy="327.0" r="6.5" fill="#eb6834" stroke="#fcfcfb" stroke-width="2"/>
<text x="772.0" y="331.5" font-size="12" fill="#52514e" text-anchor="end" style="font-variant-numeric:tabular-nums">-1.0%</text>
</g>
<g class="row"><title>Annihilator + Bite · ST build: ST -10.3%, Cleave -23.0%, AoE -31.3%, Dungeon -16.1%</title>
<rect class="own" x="239.0" y="354" width="142.0" height="34" fill="#1baf7a" fill-opacity="0.14"/>
<text x="16" y="375.5" font-size="12.5" fill="#0b0b0b"><tspan fill="#137c57" font-weight="600">Annihilator + Bite</tspan> · ST build</text>
<circle cx="269.2" cy="371.0" r="6.5" fill="#1baf7a" stroke="#fcfcfb" stroke-width="2"/>
<text x="282.2" y="375.5" font-size="12" fill="#52514e" text-anchor="start" style="font-variant-numeric:tabular-nums">-10.3%</text>
<path class="clamped" d="M392.0,371.0 l11,-7 v14 z" fill="#1baf7a"/>
<text x="411.0" y="375.5" font-size="12" fill="#52514e" text-anchor="start" style="font-variant-numeric:tabular-nums">-23.0%</text>
<path class="clamped" d="M536.0,371.0 l11,-7 v14 z" fill="#1baf7a"/>
<text x="555.0" y="375.5" font-size="12" fill="#52514e" text-anchor="start" style="font-variant-numeric:tabular-nums">-31.3%</text>
<path class="clamped" d="M680.0,371.0 l11,-7 v14 z" fill="#1baf7a"/>
<text x="699.0" y="375.5" font-size="12" fill="#52514e" text-anchor="start" style="font-variant-numeric:tabular-nums">-16.1%</text>
</g>
<g class="row"><title>Annihilator + Bite · Cleave build: ST -12.5%, Cleave -8.1%, AoE -10.3%, Dungeon -4.5%</title>
<rect class="own" x="383.0" y="388" width="142.0" height="34" fill="#1baf7a" fill-opacity="0.14"/>
<text x="16" y="409.5" font-size="12.5" fill="#0b0b0b"><tspan fill="#137c57" font-weight="600">Annihilator + Bite</tspan> · Cleave build</text>
<path class="clamped" d="M248.0,405.0 l11,-7 v14 z" fill="#1baf7a"/>
<text x="267.0" y="409.5" font-size="12" fill="#52514e" text-anchor="start" style="font-variant-numeric:tabular-nums">-12.5%</text>
<circle cx="433.4" cy="405.0" r="6.5" fill="#1baf7a" stroke="#fcfcfb" stroke-width="2"/>
<text x="446.4" y="409.5" font-size="12" fill="#52514e" text-anchor="start" style="font-variant-numeric:tabular-nums">-8.1%</text>
<circle cx="557.4" cy="405.0" r="6.5" fill="#1baf7a" stroke="#fcfcfb" stroke-width="2"/>
<text x="570.4" y="409.5" font-size="12" fill="#52514e" text-anchor="start" style="font-variant-numeric:tabular-nums">-10.3%</text>
<circle cx="753.3" cy="405.0" r="6.5" fill="#1baf7a" stroke="#fcfcfb" stroke-width="2"/>
<text x="740.3" y="409.5" font-size="12" fill="#52514e" text-anchor="end" style="font-variant-numeric:tabular-nums">-4.5%</text>
</g>
<g class="row"><title>Annihilator + Bite · AoE build: ST -16.4%, Cleave -16.0%, AoE -9.9%, Dungeon -7.4%</title>
<rect class="own" x="527.0" y="422" width="142.0" height="34" fill="#1baf7a" fill-opacity="0.14"/>
<text x="16" y="443.5" font-size="12.5" fill="#0b0b0b"><tspan fill="#137c57" font-weight="600">Annihilator + Bite</tspan> · AoE build</text>
<path class="clamped" d="M248.0,439.0 l11,-7 v14 z" fill="#1baf7a"/>
<text x="267.0" y="443.5" font-size="12" fill="#52514e" text-anchor="start" style="font-variant-numeric:tabular-nums">-16.4%</text>
<path class="clamped" d="M392.0,439.0 l11,-7 v14 z" fill="#1baf7a"/>
<text x="411.0" y="443.5" font-size="12" fill="#52514e" text-anchor="start" style="font-variant-numeric:tabular-nums">-16.0%</text>
<circle cx="561.1" cy="439.0" r="6.5" fill="#1baf7a" stroke="#fcfcfb" stroke-width="2"/>
<text x="574.1" y="443.5" font-size="12" fill="#52514e" text-anchor="start" style="font-variant-numeric:tabular-nums">-9.9%</text>
<circle cx="727.8" cy="439.0" r="6.5" fill="#1baf7a" stroke="#fcfcfb" stroke-width="2"/>
<text x="740.8" y="443.5" font-size="12" fill="#52514e" text-anchor="start" style="font-variant-numeric:tabular-nums">-7.4%</text>
</g>
<g class="row"><title>Annihilator + Bite · Dungeon build: ST -13.4%, Cleave -9.6%, AoE -11.9%, Dungeon -3.5%</title>
<rect class="own" x="671.0" y="456" width="142.0" height="34" fill="#1baf7a" fill-opacity="0.14"/>
<text x="16" y="477.5" font-size="12.5" fill="#0b0b0b"><tspan fill="#137c57" font-weight="600">Annihilator + Bite</tspan> · Dungeon build</text>
<path class="clamped" d="M248.0,473.0 l11,-7 v14 z" fill="#1baf7a"/>
<text x="267.0" y="477.5" font-size="12" fill="#52514e" text-anchor="start" style="font-variant-numeric:tabular-nums">-13.4%</text>
<circle cx="420.0" cy="473.0" r="6.5" fill="#1baf7a" stroke="#fcfcfb" stroke-width="2"/>
<text x="433.0" y="477.5" font-size="12" fill="#52514e" text-anchor="start" style="font-variant-numeric:tabular-nums">-9.6%</text>
<circle cx="543.2" cy="473.0" r="6.5" fill="#1baf7a" stroke="#fcfcfb" stroke-width="2"/>
<text x="556.2" y="477.5" font-size="12" fill="#52514e" text-anchor="start" style="font-variant-numeric:tabular-nums">-11.9%</text>
<circle cx="762.5" cy="473.0" r="6.5" fill="#1baf7a" stroke="#fcfcfb" stroke-width="2"/>
<text x="749.5" y="477.5" font-size="12" fill="#52514e" text-anchor="end" style="font-variant-numeric:tabular-nums">-3.5%</text>
</g>
</svg>
